<svg width="107" height="74" viewBox="0 0 107 74" fill="none" xmlns="http://www.w3.org/2000/svg">
<path d="M74.7188 45.6583C72.2435 45.2512 69.7951 46.5982 68.7607 48.9338C68.5601 49.3869 68.4238 49.8563 68.3453 50.3309C70.8999 49.0578 73.1326 47.523 75.0601 45.7143L74.7188 45.6583Z" fill="#124C5F"/>
<path d="M77.0152 23.0328C81.6561 19.9443 82.9706 13.5929 79.9511 8.84667C76.9316 4.10044 70.7216 2.75663 66.0807 5.84518C61.4398 8.93373 60.1254 15.2851 63.1449 20.0313C66.1643 24.7775 72.3743 26.1214 77.0152 23.0328Z" fill="#124C5F"/>
<path d="M95.4171 25.6214C91.0812 20.1302 85.1922 20.0673 81.9393 22.3072C78.6873 24.5457 78.9249 30.2334 81.6408 34.0522C81.7642 34.2628 81.8952 34.4821 82.0236 34.699C82.9595 31.7946 83.0914 29.6864 83.0927 29.6573C83.1881 27.1931 85.1423 25.2696 87.5427 25.2696C87.5984 25.2696 87.6541 25.2705 87.7098 25.2727C90.1654 25.3648 92.0898 27.483 91.9993 29.995V30.0028L91.9966 30.0433C91.9235 31.45 91.4529 36.5064 88.4679 42.5154C88.196 43.0669 87.8756 43.6714 87.5079 44.3113C88.1336 45.5338 88.7353 46.7828 89.2839 48.0513L85.4828 47.4268C82.9118 50.9494 78.9788 54.9455 73.1215 58.0765L90.115 72.4631C91.1543 73.3432 92.4129 73.7722 93.6643 73.7722C95.2665 73.7722 96.8566 73.0684 97.9587 71.7078C99.9196 69.2833 99.5894 65.6919 97.2193 63.6858L93.1331 60.2248L94.4549 60.4427C94.8645 60.5097 95.2696 60.5261 95.6675 60.5024C96.6275 60.5494 97.7564 60.2061 99.1446 59.7116C103.001 58.3368 107.374 55.9132 106.237 48.5276C103.943 38.6063 101.334 33.2081 95.4171 25.6214Z" fill="#124C5F"/>
<path d="M87.6737 42.1015C90.8825 35.6426 91.0897 30.2968 91.1089 29.9608C91.1811 27.9479 89.6458 26.2569 87.6778 26.1835C85.7128 26.1087 84.0616 27.6754 83.9845 29.6837L83.9841 29.6832C83.9783 29.9153 83.681 34.3116 81.077 39.2659C78.4454 44.2275 73.7142 49.8021 64.1365 53.0635C62.2665 53.6943 61.2504 55.756 61.8685 57.6691C62.3628 59.2015 63.7568 60.1733 65.2538 60.1733C65.6241 60.1733 66.0007 60.1136 66.3715 59.9887C78.0817 56.0691 84.4953 48.5513 87.6737 42.1015Z" fill="#124C5F"/>
<path d="M40.7163 59.4458C42.3368 59.7603 44.287 60.2799 44.8026 60.8383C46.1909 62.3366 46.8692 65.4311 48.6692 65.6481C49.9269 65.7994 50.3685 65.7716 51.9265 64.7433C53.4645 63.7259 52.0041 59.7649 51.6369 58.2429C51.1163 56.0832 52.3575 53.7112 52.3767 53.5662C52.3923 53.4459 53.4614 51.1526 56.5521 52.0233C57.6315 52.3296 56.9995 50.2889 55.3091 49.2692C53.2992 48.0586 51.845 48.6229 50.3756 49.8016C47.5385 47.5809 43.0939 48.0143 40.567 48.9816C40.1633 50.6649 40.0068 52.2936 40.0068 53.7918C40.0055 56.0696 40.362 58.0446 40.7163 59.4458ZM47.92 54.6547C48.5805 54.1939 49.4816 54.3684 49.9326 55.044C50.3828 55.7199 50.2121 56.6421 49.5516 57.102C48.8893 57.5628 47.9891 57.3887 47.5381 56.7127C47.0884 56.0372 47.2582 55.1151 47.92 54.6547Z" fill="#124C5F"/>
<path d="M38.7457 48.9301C38.0879 48.9397 37.4613 48.9201 36.8637 48.8727C36.6542 48.8194 36.4376 48.7861 36.2108 48.798C36.197 48.7989 36.1845 48.8034 36.1707 48.8043C27.0796 47.7482 24.6048 40.7145 13.9838 48.0139C10.7759 47.0499 6.95124 44.9773 4.05444 40.5545C3.46883 39.6652 2.29006 39.4323 1.42324 40.0312C0.551971 40.6288 0.322009 41.8335 0.909838 42.7233C3.66537 46.8876 7.07068 49.3272 10.2661 50.7561C10.2286 50.8364 10.1894 50.9316 10.1502 51.0228C9.33108 52.2831 8.68978 53.9437 8.27264 56.1567C8.21425 56.4798 5.61336 73.4563 9.69831 73.4563C13.7833 73.4563 14.905 60.6141 17.1859 58.97C17.5072 58.9991 23.5669 65.4932 28.7428 64.6768C29.9555 64.4844 31.5973 63.7187 32.9655 62.9041L35.2045 72.0715C35.4558 73.1003 36.3547 73.7982 37.3628 73.7982C37.4729 73.7982 37.5848 73.79 37.6966 73.7726C38.8335 73.5981 39.6522 72.5743 39.592 71.3997L39.0109 59.9851C38.6196 58.4622 38.2247 56.3089 38.223 53.7919C38.2234 52.279 38.3691 50.6372 38.7457 48.9301Z" fill="#124C5F"/>
<path d="M58.6299 71.3499H58.0674L56.9194 67.7115H44.058L42.91 71.3499H42.3467C41.8939 71.3499 41.5258 71.7259 41.5258 72.19C41.5258 72.6535 41.8939 73.0296 42.3467 73.0296H58.6299C59.0826 73.0296 59.4508 72.6535 59.4508 72.19C59.4508 71.7259 59.0822 71.3499 58.6299 71.3499Z" fill="#124C5F"/>
</svg>
