<svg width="93" height="92" viewBox="0 0 93 92" fill="none" xmlns="http://www.w3.org/2000/svg">
<path d="M61.3227 27.1615C61.0769 26.1128 60.4055 25.3252 59.4821 24.9999C59.4161 24.9766 59.3469 24.974 59.28 24.9557C59.9416 22.0289 61.8073 11.3888 55.6947 5.16196C52.1518 1.55335 46.6235 0.12517 39.2718 0.912825C39.1367 0.859724 38.9899 0.828749 38.8377 0.824324C33.0629 0.642898 28.6438 2.19111 25.7467 5.41972C20.0708 11.7432 22.126 22.4134 22.7178 24.9425C22.6308 24.9643 22.5413 24.9697 22.4557 24.9999C21.5318 25.3252 20.861 26.1128 20.6146 27.1615C20.3951 28.0958 20.5174 29.1749 20.9588 30.1993C21.7672 32.0783 23.4029 33.2786 24.9738 33.2786C25.1418 33.2786 25.309 33.2643 25.4745 33.2361C26.8068 37.0721 29.0293 40.2618 32.7015 42.2196V46.1521H30.7938V57.2434H51.1436V46.1521H49.2351V42.2441C52.914 40.2888 55.1383 37.0894 56.4698 33.2379C56.6331 33.2652 56.7981 33.2786 56.9641 33.2786C58.5331 33.2786 60.1694 32.0783 60.979 30.1999C61.4193 29.1749 61.5416 28.0958 61.3227 27.1615ZM22.7089 29.5826C22.4038 28.8735 22.3102 28.1196 22.4521 27.5144C22.5646 27.0365 22.8141 26.6969 23.1369 26.583C23.2243 26.5526 23.3197 26.5376 23.4212 26.5376C23.6045 26.5376 23.8076 26.5877 24.0172 26.6811C24.2324 28.3739 24.538 30.0153 24.9636 31.5741C24.2448 31.5611 23.2385 30.8132 22.7089 29.5826ZM50.3128 47.8513C48.4451 49.6275 44.9644 50.8249 40.9687 50.8249C36.9731 50.8249 33.4923 49.6275 31.6246 47.8513H33.6408C34.1593 47.8513 34.58 47.4708 34.58 47.0017V43.0679C36.4102 43.7489 38.5373 44.1742 41.0163 44.2875C43.4553 44.1754 45.5503 43.7563 47.3573 43.0875V47.0017C47.3573 47.4708 47.778 47.8513 48.2965 47.8513H50.3128ZM56.0787 25.7814C56.0169 26.3038 55.9546 26.8257 55.878 27.3278C55.6825 28.6076 55.4326 29.816 55.1279 30.957C55.013 31.3875 54.8834 31.8009 54.7513 32.2106C53.5999 35.7794 51.7865 38.5595 48.986 40.3375C48.5724 40.6001 48.1247 40.8285 47.6674 41.0474C45.8268 41.9281 43.6444 42.4689 41.0163 42.5905C38.3942 42.47 36.2121 41.9396 34.3699 41.0741C33.8808 40.8443 33.407 40.5995 32.9672 40.3206C30.1608 38.5411 28.3431 35.7657 27.1898 32.2044C27.0571 31.7945 26.9271 31.3808 26.8118 30.9501C26.5068 29.8117 26.2565 28.6063 26.0608 27.3296C25.9838 26.8273 25.9212 26.3053 25.8592 25.7827C25.6934 24.3844 25.5752 22.9191 25.5032 21.3842C25.7231 20.1381 26.0449 19.1036 26.4285 18.2562C27.0063 18.1677 28.2531 17.9237 29.7212 17.312C29.9524 17.6013 30.3462 17.7849 30.7461 17.7573C30.954 17.7478 33.7215 17.6046 36.6468 16.5664C36.6321 16.6864 36.64 16.8097 36.6718 16.932C36.7972 17.4077 37.2619 17.7473 37.8024 17.7584C38.0537 17.7655 43.0256 17.8209 46.094 14.6465C47.2778 17.2119 49.9359 21.414 55.3572 24.0519L56.1654 25.0593C56.1399 25.3047 56.1072 25.5402 56.0787 25.7814ZM59.2278 29.5826C58.6999 30.8109 57.6963 31.5568 56.9792 31.5732C57.4027 30.0145 57.7069 28.3731 57.9212 26.6804C58.1304 26.5873 58.333 26.5376 58.516 26.5376C58.6175 26.5376 58.7129 26.5526 58.7997 26.583C59.2424 26.739 59.4198 27.2335 59.4858 27.5144C59.6277 28.1196 59.5335 28.8735 59.2278 29.5826ZM38.8377 31.7946V29.4128C38.8377 28.9437 39.2583 28.5632 39.7769 28.5632C40.2954 28.5632 40.7161 28.9437 40.7161 29.4128V31.6021H42.1604C42.6789 31.6021 43.0996 31.9826 43.0996 32.4517C43.0996 32.9207 42.6789 33.3013 42.1604 33.3013H40.5033C39.5849 33.3013 38.8377 32.6254 38.8377 31.7946ZM34.3496 26.331C34.3496 27.2448 33.5307 27.9856 32.5205 27.9856C31.5104 27.9856 30.6916 27.2448 30.6916 26.331C30.6916 25.4173 31.5104 24.6765 32.5205 24.6765C33.5307 24.6765 34.3496 25.4173 34.3496 26.331ZM51.2459 26.331C51.2459 27.2448 50.4269 27.9856 49.4169 27.9856C48.4067 27.9856 47.5878 27.2448 47.5878 26.331C47.5878 25.4173 48.4067 24.6765 49.4169 24.6765C50.4269 24.6765 51.2459 25.4173 51.2459 26.331ZM45.5663 37.0283C45.5663 38.4 43.1913 38.889 40.9686 38.889C38.7465 38.889 36.3716 38.4 36.3716 37.0283C36.3716 36.5592 36.7923 36.1786 37.3108 36.1786C37.7297 36.1786 38.0843 36.4265 38.2054 36.7694C38.5197 36.9375 39.5078 37.1898 40.9686 37.1898C42.43 37.1898 43.4182 36.9375 43.7325 36.7688C43.8536 36.4265 44.2082 36.1786 44.6271 36.1786C45.1456 36.1786 45.5663 36.5592 45.5663 37.0283ZM92.6838 63.5281C92.4134 63.0973 91.9938 62.7779 91.494 62.5941C91.5724 62.1267 91.4949 61.6349 91.2175 61.1928C90.9473 60.7622 90.528 60.443 90.0276 60.259C90.1058 59.7916 90.0284 59.2998 89.7512 58.8575C89.4736 58.4151 89.0458 58.1038 88.5613 57.9261C88.64 57.4585 88.563 56.9665 88.2861 56.5244C87.9669 56.0166 87.4496 55.6526 86.8271 55.4978C86.2108 55.344 85.5577 55.417 84.9964 55.7046L84.0445 56.1939C83.8632 55.926 83.6235 55.6838 83.3295 55.483V54.5541H88.6518C89.1703 54.5541 89.591 54.1736 89.591 53.704C89.591 53.2349 89.1703 52.8544 88.6518 52.8544H83.3295V52.0048H88.6518C89.1703 52.0048 89.591 51.6242 89.591 51.1552C89.591 50.6861 89.1703 50.3056 88.6518 50.3056H83.3295V49.456H88.6518C89.1703 49.456 89.591 49.0754 89.591 48.6063C89.591 48.1373 89.1703 47.7567 88.6518 47.7567H83.3295V46.9071H88.6518C89.1703 46.9071 89.591 46.5266 89.591 46.0575C89.591 45.5885 89.1703 45.2079 88.6518 45.2079H83.3295L83.3356 44.3583H88.6518C89.1703 44.3583 89.591 43.9778 89.591 43.5087C89.591 43.0397 89.1703 42.6591 88.6518 42.6591H83.3356C82.279 42.6591 81.4511 43.5297 81.4511 44.6415V46.0575V48.6063V48.7347C81.3707 47.7695 80.9755 46.8 80.2783 45.9652C78.5625 43.9092 75.6237 43.288 73.7306 44.5823C72.7439 45.2565 72.2438 46.3207 72.2223 47.4746C70.9896 47.1773 69.7211 47.3212 68.7337 47.9957C67.7822 48.6451 67.2246 49.6988 67.2038 50.8858C67.1854 51.9849 67.6135 53.116 68.4108 54.0718C69.2082 55.0265 70.2942 55.7091 71.4682 55.9934C71.8608 56.0885 72.2533 56.135 72.6373 56.135C73.4934 56.135 74.303 55.9027 74.9597 55.4535C75.0221 55.4109 75.0665 55.3548 75.125 55.3092L78.0707 58.5051L77.0064 60.5791C76.925 60.7063 76.8511 60.8362 76.7853 60.9719L70.5926 64.1498L60.0264 48.4515C59.7671 48.0666 59.4516 47.7361 59.1124 47.4331C58.553 46.7801 57.7455 46.3151 56.809 46.1652C55.8968 45.8918 54.9244 45.8045 53.9612 45.9505V57.3366C54.1907 57.4011 54.4032 57.4954 54.5879 57.6208C54.9342 57.8558 55.1878 58.1866 55.2899 58.5765L55.5266 59.4739L59.9096 76.0894V68.9732L63.4298 74.2035C64.5476 75.864 66.5055 76.7866 68.516 76.7866C69.5115 76.7866 70.5204 76.5598 71.4462 76.0841L82.7229 70.2962C82.7694 70.2723 82.8054 70.239 82.851 70.2142C82.9396 70.2191 83.0276 70.2298 83.1167 70.2298C83.8505 70.2298 84.594 70.0628 85.2764 69.7121L87.3964 68.6229L87.5259 68.7634C87.954 69.2275 88.7092 69.3061 89.2425 68.9418L89.6304 68.6768L90.0393 68.3975L90.4268 68.1328C90.8161 67.867 90.964 67.4139 90.8577 66.9764L91.7788 66.5028C92.3389 66.2152 92.7413 65.7472 92.9125 65.1842C93.0837 64.6222 93.0018 64.0336 92.6838 63.5281ZM87.219 59.6041L87.3909 59.5157C87.4716 59.4748 87.5621 59.4526 87.6526 59.4526C87.7003 59.4526 87.748 59.4593 87.7957 59.4703C87.9339 59.5046 88.0488 59.5854 88.1186 59.6971C88.2641 59.9283 88.1736 60.2248 87.918 60.3565L87.7468 60.4444L86.509 61.0806L85.4599 61.6198C85.3364 61.6818 85.1933 61.6972 85.0551 61.6652C84.9181 61.6309 84.8032 61.5501 84.7334 61.4384C84.5879 61.2061 84.6772 60.9107 84.9328 60.779L85.9011 60.2814L87.219 59.6041ZM84.2037 58.2813L84.2271 58.2358C84.2445 58.2019 84.2505 58.1661 84.2656 58.1318C84.2831 58.092 84.2956 58.0515 84.3102 58.0113L85.4825 57.4087L85.9246 57.1815C86.0065 57.1406 86.0958 57.1184 86.1875 57.1184C86.2352 57.1184 86.2829 57.124 86.3294 57.1361C86.4676 57.1704 86.5825 57.2512 86.6522 57.3629C86.7429 57.5069 86.733 57.6725 86.6577 57.8115C86.6121 57.8958 86.5481 57.9726 86.4517 58.0223L85.777 58.369L84.8202 58.8607L83.9936 59.2856C83.8913 59.3378 83.776 59.3491 83.6604 59.3356L84.2037 58.2813ZM73.4506 53.6459C72.9969 53.9534 72.4196 53.8788 72.1151 53.8046C71.4865 53.6525 70.8653 53.2521 70.4091 52.7061C69.9542 52.1602 69.6986 51.5097 69.7084 50.9212C69.7133 50.6369 69.7891 50.1131 70.2428 49.8033C70.4703 49.6484 70.7503 49.5749 71.0536 49.5749C71.7898 49.5749 72.6679 50.0058 73.283 50.7431C74.1525 51.7846 74.2284 53.1138 73.4506 53.6459ZM75.4061 49.2928C74.5378 48.2518 74.4607 46.9221 75.2397 46.39C75.4672 46.2351 75.746 46.1615 76.0506 46.1615C76.7868 46.1615 77.6636 46.593 78.28 47.3303C78.7361 47.8762 78.9917 48.5267 78.9819 49.1147C78.9771 49.3995 78.9012 49.9228 78.4475 50.2325C77.9938 50.5401 77.4166 50.4654 77.1121 50.3913C76.4835 50.2392 75.8622 49.8387 75.4061 49.2928ZM77.8244 56.1186C77.396 55.6054 77.5087 54.8752 78.076 54.4876C78.6433 54.1002 79.4506 54.202 79.879 54.7152C80.0287 54.8947 80.0895 55.101 80.1107 55.3096C79.7586 55.5161 79.4628 55.7949 79.2779 56.1527L79.0736 56.5507C78.6131 56.6235 78.1256 56.4793 77.8244 56.1186ZM85.2074 67.7928L84.3482 68.2341C83.1485 68.8536 81.6113 68.4697 80.9264 67.3823L78.6053 63.6874C78.2741 63.1601 78.1896 62.5477 78.3678 61.9627L78.3783 61.9423L78.6866 61.3414L80.9815 56.8684C81.0475 56.7407 81.228 56.6573 81.4511 56.6382C81.6162 56.624 81.8023 56.641 81.9953 56.7224C82.1887 56.804 82.323 56.9222 82.417 57.0459C82.4384 57.0739 82.4635 57.1 82.4796 57.1285C82.5589 57.2693 82.5779 57.4122 82.5236 57.5189L80.6015 61.2509L80.2183 61.9948C80.1817 62.066 80.1735 62.1405 80.1598 62.2143C80.0916 62.5815 80.2813 62.9584 80.6733 63.1232C80.8017 63.1774 80.9362 63.2029 81.0683 63.2029C81.2023 63.2029 81.3305 63.1694 81.4511 63.1204V67.1566C81.4511 67.6257 81.8718 68.0062 82.3903 68.0062C82.9088 68.0062 83.3295 67.6257 83.3295 67.1566V64.2106L85.5954 66.6689L86.1738 67.2965L85.2074 67.7928ZM86.9262 63.954C86.8014 64.016 86.6559 64.0348 86.5214 63.9994C86.3844 63.9651 86.2695 63.8843 86.1998 63.7726C86.0542 63.5403 86.1435 63.2449 86.3991 63.1133L87.5899 62.5013L88.6851 61.9383L88.8572 61.8499C88.9379 61.809 89.0284 61.7868 89.1189 61.7868C89.1666 61.7868 89.2143 61.7935 89.262 61.8045C89.399 61.8388 89.5139 61.9196 89.5836 62.0313C89.7292 62.2636 89.6399 62.559 89.3843 62.6907L89.2129 62.7787L88.1978 63.3004L86.9262 63.954ZM91.1013 64.7339C91.0634 64.8578 90.9741 64.9618 90.8506 65.0249C90.8506 65.0249 90.8506 65.0249 90.8494 65.0249L90.409 65.2514L89.8866 65.5202L88.3937 66.2882C88.2821 66.3466 88.1578 66.3569 88.0398 66.3381C87.8876 66.3139 87.7469 66.237 87.6648 66.1068C87.5193 65.8745 87.6098 65.5791 87.8654 65.4474L89.2787 64.7211L89.6595 64.5253L90.3235 64.1841C90.4042 64.1432 90.4947 64.121 90.5852 64.121C90.5995 64.121 90.6134 64.1253 90.6277 64.1264C90.661 64.129 90.6945 64.131 90.7271 64.1387C90.8653 64.173 90.979 64.2538 91.0512 64.3677C91.1209 64.4795 91.1392 64.6089 91.1013 64.7339ZM59.7263 89.3291L59.2033 78.3243C59.2009 78.2955 59.1972 78.2668 59.1886 78.238L54.0718 58.8387C54.053 58.7659 54.0131 58.7003 53.9612 58.6409C53.8218 58.4809 53.5798 58.3763 53.3087 58.3763H28.6285C28.3573 58.3763 28.1157 58.4814 27.9762 58.641C27.9244 58.7002 27.8844 58.7654 27.8654 58.8376L23.3715 75.8775L22.8039 75.5882L22.6722 75.521C22.5251 75.448 22.3772 75.3883 22.2293 75.3278L26.4108 59.4724L26.5861 58.8076L26.6474 58.5754C26.7498 58.1856 27.0035 57.855 27.3499 57.6203C27.5346 57.4951 27.7469 57.4009 27.9762 57.3365V46.1053V45.9919C25.7849 45.35 23.2849 45.8932 21.6706 47.5593L1.47738 68.3746C0.357167 69.5295 -0.163806 71.0617 0.0453167 72.5861C0.25444 74.1117 1.1747 75.4823 2.57314 76.354L14.1568 83.5757C14.5184 83.8012 14.9018 83.9708 15.2923 84.115C15.7665 84.6076 16.3312 85.0283 16.9678 85.349L21.0493 87.4058L21.6613 87.7143L22.0278 87.8989L22.2429 88.0074C22.2534 88.0127 22.2649 88.0141 22.2755 88.0192L22.2121 89.3304L22.1531 90.5484C22.1451 90.7144 22.2362 90.8372 22.3145 90.9113C22.4637 91.0529 22.6881 91.1336 22.929 91.1336H59.0076C59.2486 91.1336 59.4736 91.0529 59.6228 90.9113C59.701 90.8372 59.7928 90.7144 59.7842 90.5484L59.7263 89.3291ZM14.8301 70.9256L22.0278 63.5063V75.244C21.7914 75.1563 21.5547 75.0877 21.3182 75.0299C21.1797 74.9257 21.0587 74.8088 20.9075 74.7146L14.8301 70.9256ZM28.9251 80.9882C28.8401 81.1264 28.6395 81.1784 28.4903 81.101C28.4897 81.101 28.4897 81.101 28.4897 81.101L24.2204 78.9493C23.9836 78.8302 23.705 78.8375 23.4546 78.9255C23.2259 79.0058 23.0205 79.1527 22.8997 79.3476C22.7774 79.5445 22.7468 79.7768 22.8147 79.9947C22.8825 80.2116 23.0434 80.3952 23.261 80.5058L23.2646 80.5076L28.3754 83.0845C28.4744 83.1343 28.5124 83.215 28.5258 83.2582C28.5399 83.3013 28.5545 83.3876 28.4983 83.4783C28.4439 83.5679 28.3552 83.6011 28.3069 83.6144C28.2586 83.6266 28.162 83.6399 28.0641 83.5901L23.07 81.072L22.9498 81.0114C22.8464 80.9593 22.7332 80.9363 22.6189 80.9278C22.4142 80.9125 22.211 80.9698 22.0278 81.0673C22.0108 81.0764 21.9931 81.0836 21.9766 81.0934C21.8367 81.1771 21.71 81.2785 21.6278 81.4107C21.5061 81.6077 21.4755 81.8411 21.5434 82.0579C21.6015 82.2435 21.7376 82.3955 21.9093 82.507C21.9382 82.5258 21.9585 82.5532 21.9898 82.569L22.0278 82.5882L22.0722 82.6105L22.5264 82.8394L26.2591 84.7207C26.3588 84.7704 26.3967 84.8512 26.4101 84.8955C26.4242 84.9386 26.4389 85.0238 26.3826 85.1145C26.3276 85.2041 26.2395 85.2384 26.1912 85.2506C26.1441 85.2627 26.0487 85.2771 25.9485 85.2262L22.495 83.4862L22.0278 83.2508L21.8775 83.175L21.618 83.0443L21.2654 82.8666L21.2016 82.8345C20.9038 82.6852 20.4489 82.7427 20.1584 82.9064C19.8765 83.0657 19.709 83.3478 19.717 83.6476C19.7215 83.8062 19.7796 83.9538 19.8712 84.0828C19.9534 84.1984 20.0617 84.2998 20.1988 84.3689L21.1706 84.8587L21.7826 85.1672L22.0278 85.2908L22.3986 85.4777L23.4689 86.0172C23.5674 86.067 23.6047 86.1477 23.6187 86.1909C23.6322 86.234 23.6469 86.3203 23.5918 86.4099C23.5075 86.5471 23.3057 86.6013 23.1571 86.5228L22.3673 86.1247L22.0278 85.9536L21.7518 85.8145L21.1398 85.506L18.9039 84.3792L17.8825 83.8644C17.0081 83.4241 16.3196 82.7194 15.9442 81.8798C15.4354 80.7448 15.4929 79.5036 16.097 78.5599C16.8326 77.4116 18.2482 76.5631 19.8233 76.5631C20.4617 76.5631 21.1266 76.7066 21.7827 77.0213C21.8015 77.0303 21.8205 77.0361 21.8394 77.0455L22.0278 77.1416L22.3508 77.3063L22.9183 77.5957L23.2552 77.7675L28.8004 80.5954C28.9 80.6452 28.9379 80.7271 28.9514 80.7702C28.9655 80.8134 28.9801 80.8997 28.9251 80.9882ZM52.1461 76.7753C52.1193 78.2678 50.5273 78.9193 49.7156 77.7667L48.8991 76.6088C48.682 77.2958 48.3515 77.941 47.9238 78.5288C47.9272 78.6201 47.9372 78.7095 47.9372 78.8017C47.9372 82.6529 44.8176 85.7753 40.9687 85.7753C37.1198 85.7753 34.0002 82.6529 34.0002 78.8017C34.0002 78.7095 34.0102 78.6201 34.0136 78.5288C33.5853 77.941 33.2548 77.2958 33.0376 76.6088L32.2218 77.7667C31.4101 78.9193 29.8181 78.2678 29.7906 76.7753C29.7779 76.0782 29.7504 75.3546 29.6994 74.6454C29.5218 72.1545 33.2702 70.9868 34.9594 70.5871C36.4622 69.6103 38.5944 69.1707 40.9687 69.1707C43.3423 69.1707 45.4752 69.6103 46.978 70.5871C48.6672 70.9868 52.4155 72.1545 52.2379 74.6454C52.187 75.3546 52.1595 76.0782 52.1461 76.7753ZM38.1131 81.9477C38.1131 80.8984 39.3916 80.0478 40.9687 80.0478C42.5458 80.0478 43.8244 80.8984 43.8244 81.9477C43.8244 82.9969 42.5458 83.8476 40.9687 83.8476C39.3916 83.8476 38.1131 82.9969 38.1131 81.9477Z" fill="#124C5F"/>
</svg>
