<svg width="19" height="20" viewBox="0 0 19 20" fill="none" xmlns="http://www.w3.org/2000/svg">
<path d="M16.8582 2H12.6782C12.2582 0.84 11.1582 0 9.85815 0C8.55815 0 7.45815 0.84 7.03815 2H2.85815C1.75815 2 0.858154 2.9 0.858154 4V18C0.858154 19.1 1.75815 20 2.85815 20H16.8582C17.9582 20 18.8582 19.1 18.8582 18V4C18.8582 2.9 17.9582 2 16.8582 2ZM9.85815 2C10.4082 2 10.8582 2.45 10.8582 3C10.8582 3.55 10.4082 4 9.85815 4C9.30815 4 8.85815 3.55 8.85815 3C8.85815 2.45 9.30815 2 9.85815 2ZM11.8582 16H4.85815V14H11.8582V16ZM14.8582 12H4.85815V10H14.8582V12ZM14.8582 8H4.85815V6H14.8582V8Z" fill="#8E8E93"/>
</svg>
