<svg width="22" height="11" viewBox="0 0 22 11" fill="none" xmlns="http://www.w3.org/2000/svg">
<path d="M20.9924 4.59773C21.2378 3.99393 21.3107 3.30362 21.199 2.64106C21.1121 2.07757 20.8935 1.55879 20.5709 1.15013C20.2482 0.741458 19.8359 0.461188 19.3858 0.344641C19.0286 0.244562 18.6578 0.248249 18.3019 0.355418C17.9461 0.462586 17.6147 0.670373 17.3333 0.962751C16.632 1.65625 15.7589 2.02252 14.8644 1.99839H6.38557C5.49114 2.02252 4.61799 1.65625 3.91668 0.962751C3.63532 0.670373 3.30392 0.462586 2.94806 0.355418C2.59219 0.248249 2.22137 0.244562 1.86418 0.344641C1.41413 0.461188 1.00178 0.741458 0.679118 1.15013C0.356453 1.55879 0.137908 2.07757 0.0510302 2.64106C-0.0606577 3.30362 0.0122164 3.99393 0.257591 4.59773C0.346524 4.81509 0.392895 5.05568 0.392895 5.29976C0.392895 5.54383 0.346524 5.78442 0.257591 6.00178C0.0127246 6.60578 -0.0601262 7.29587 0.0510302 7.95845C0.138134 8.52225 0.356688 9.04137 0.679261 9.45065C1.00183 9.85992 1.41405 10.1411 1.86418 10.259C2.22137 10.359 2.59219 10.3554 2.94806 10.2482C3.30392 10.141 3.63532 9.93323 3.91668 9.64085C4.61768 8.94619 5.49078 8.5785 6.38557 8.60112H14.8644C15.7592 8.5785 16.6323 8.94619 17.3333 9.64085C17.6147 9.93323 17.9461 10.141 18.3019 10.2482C18.6578 10.3554 19.0286 10.359 19.3858 10.259C19.8359 10.1411 20.2482 9.85992 20.5707 9.45065C20.8933 9.04137 21.1119 8.52225 21.199 7.95845C21.3101 7.29587 21.2373 6.60578 20.9924 6.00178C20.9035 5.78442 20.8571 5.54383 20.8571 5.29976C20.8571 5.05568 20.9035 4.81509 20.9924 4.59773Z" fill="#DDCA69"/>
</svg>
