<svg width="22" height="11" viewBox="0 0 22 11" fill="none" xmlns="http://www.w3.org/2000/svg">
<path d="M20.6546 4.40854C20.5401 4.68831 20.4821 4.9934 20.4821 5.29976C20.4821 5.60617 20.5402 5.91131 20.6546 6.19112L21.1174 6.00178L20.654 6.18964C20.863 6.70519 20.9272 7.30139 20.8309 7.87572L20.8308 7.87571L20.8298 7.88211C20.7546 8.36903 20.5673 8.80584 20.303 9.14114C20.0393 9.47573 19.7165 9.68827 19.3842 9.77526L19.3842 9.77519L19.3759 9.7775C19.1103 9.85192 18.8363 9.84928 18.5711 9.76942C18.3048 9.68923 18.0461 9.53052 17.8186 9.29415L17.8187 9.29405L17.8103 9.2857C17.0251 8.50766 16.0266 8.07665 14.9833 8.10112H6.51665C5.47337 8.07665 4.47487 8.50766 3.68973 9.2857L3.68963 9.2856L3.6814 9.29415C3.45394 9.53052 3.19516 9.68923 2.92888 9.76943C2.66371 9.84928 2.38968 9.85192 2.12408 9.7775L2.1241 9.77743L2.1158 9.77526C1.78351 9.68827 1.46065 9.47573 1.19696 9.14114C0.932683 8.80584 0.745394 8.36903 0.670168 7.88211L0.670209 7.8821L0.669139 7.87572C0.57283 7.30164 0.636894 6.70571 0.84569 6.1903C0.959955 5.91071 1.0179 5.60587 1.0179 5.29976C1.0179 4.99335 0.959842 4.6882 0.845354 4.40839L0.382591 4.59773L0.845803 4.40949C0.636468 3.89437 0.572304 3.29824 0.669074 2.72418L0.669123 2.72418L0.670191 2.71725C0.745192 2.2308 0.932391 1.79453 1.19654 1.45997C1.46011 1.12615 1.78273 0.914599 2.11453 0.828675L2.11455 0.828769L2.12408 0.8261C2.38968 0.751681 2.66371 0.754324 2.92888 0.834179C3.19516 0.914369 3.45394 1.07308 3.6814 1.30945L3.68129 1.30956L3.69011 1.31828C4.47563 2.09505 5.47421 2.52449 6.51707 2.49839H14.9829C16.0258 2.52449 17.0244 2.09505 17.8099 1.31828L17.81 1.31839L17.8186 1.30945C18.0461 1.07308 18.3048 0.914369 18.5711 0.834179C18.8363 0.754324 19.1103 0.751681 19.3759 0.8261L19.3759 0.826194L19.3855 0.828675C19.7173 0.914599 20.0399 1.12615 20.3035 1.45997C20.5676 1.79453 20.7548 2.2308 20.8298 2.71725L20.8298 2.71726L20.8309 2.72418C20.9276 3.29789 20.8636 3.89364 20.6546 4.40854ZM20.6546 4.40854C20.6546 4.40849 20.6546 4.40844 20.6546 4.40839L21.1174 4.59773L20.6542 4.40949C20.6543 4.40917 20.6545 4.40886 20.6546 4.40854Z" stroke="#DDCA69"/>
</svg>
