<svg width="52" height="49" viewBox="0 0 52 49" fill="none" xmlns="http://www.w3.org/2000/svg">
<path d="M27.3784 24.6847C26.5054 28.7117 29.5877 30.0575 31.6738 34.1764C34.806 40.1037 38.7701 39.6192 40.3228 36.3377C41.8053 33.1824 39.3295 30.0095 40.0941 26.423C40.8587 22.8366 44.6733 20.408 44.6439 17.0189C44.6145 13.6299 41.0518 12.164 35.5232 16.9344C31.7672 20.241 28.354 20.7192 27.3784 24.6847Z" fill="#00AEFF"/>
<path d="M20.2303 14.044C22.3972 16.5872 25.6478 17.1444 27.4432 15.403C29.2387 13.6616 28.9202 10.2218 26.679 7.79904C24.512 5.25591 21.2614 4.69862 19.466 6.44003C17.7449 8.06111 18.0634 11.5009 20.2303 14.044Z" fill="#124C5F"/>
<path d="M12.0726 24.476C15.4342 25.5733 19.0206 24.6915 20.1206 22.2366C21.1458 19.9015 19.3002 17.0716 15.8318 15.9137C12.4701 14.8164 8.88381 15.6983 7.78383 18.1531C6.75859 20.4883 8.71092 23.3787 12.0726 24.476Z" fill="#124C5F"/>
<path d="M12.678 37.1193C16.0397 38.2166 19.626 37.3348 20.726 34.8799C21.7513 32.5448 19.9056 29.7149 16.4373 28.557C13.0756 27.4597 9.48928 28.3416 8.3893 30.7964C7.36405 33.1316 9.31639 36.022 12.678 37.1193Z" fill="#124C5F"/>
</svg>
