<svg width="264" height="49" viewBox="0 0 264 49" fill="none" xmlns="http://www.w3.org/2000/svg">
<path d="M52.64 33.752H54.24V19.352H52.64V14.104H66.688C69.44 14.104 71.5413 14.7013 72.992 15.896C74.4427 17.0693 75.168 18.9787 75.168 21.624C75.168 24.2693 74.4427 26.1893 72.992 27.384C71.5413 28.5573 69.44 29.144 66.688 29.144H63.2V33.752H66.272V39H52.64V33.752ZM64.288 24.6C65.5253 24.6 66.144 23.9173 66.144 22.552V21.4C66.144 20.696 65.984 20.184 65.664 19.864C65.3653 19.5227 64.9067 19.352 64.288 19.352H63.2V24.6H64.288ZM85.112 39.448C82.0827 39.448 79.7147 38.6587 78.008 37.08C76.3013 35.48 75.448 33.1547 75.448 30.104C75.448 27.0533 76.3013 24.7387 78.008 23.16C79.7147 21.56 82.0827 20.76 85.112 20.76C88.12 20.76 90.2853 21.5493 91.608 23.128C92.952 24.6853 93.624 26.6267 93.624 28.952V31.256H83.256V31.448C83.256 32.2373 83.4907 32.824 83.96 33.208C84.4293 33.5707 85.208 33.752 86.296 33.752C87.5973 33.752 88.8347 33.656 90.008 33.464C91.1813 33.272 92.2053 33.0267 93.08 32.728V37.848C92.3333 38.2533 91.2347 38.6267 89.784 38.968C88.3547 39.288 86.7973 39.448 85.112 39.448ZM86.968 27.736V27.352C86.968 26.6267 86.808 26.104 86.488 25.784C86.1893 25.464 85.7307 25.304 85.112 25.304C84.4933 25.304 84.024 25.4747 83.704 25.816C83.4053 26.136 83.256 26.648 83.256 27.352V27.736H86.968ZM102.48 39.448C100.219 39.448 98.512 38.904 97.36 37.816C96.2293 36.7067 95.664 34.8507 95.664 32.248V26.456H94.256V21.208C95.0667 21.208 95.6747 21.0053 96.08 20.6C96.4853 20.1733 96.688 19.5973 96.688 18.872V17.432H103.472V21.208H107.792V26.456H103.472V31.704C103.472 32.408 103.621 32.9307 103.92 33.272C104.24 33.592 104.709 33.752 105.328 33.752C106.139 33.752 107.024 33.656 107.984 33.464V38.488C107.387 38.7227 106.576 38.936 105.552 39.128C104.549 39.3413 103.525 39.448 102.48 39.448ZM118.671 33.752H120.271V19.352H118.671V14.104H133.359C136.026 14.104 138.106 14.648 139.599 15.736C141.093 16.824 141.839 18.3813 141.839 20.408C141.839 21.6667 141.541 22.7333 140.943 23.608C140.346 24.4613 139.642 25.112 138.831 25.56C138.042 25.9867 137.274 26.2747 136.527 26.424V26.744C138.042 26.8933 139.407 27.3733 140.623 28.184C141.839 28.9947 142.447 30.4453 142.447 32.536C142.447 34.776 141.605 36.4187 139.919 37.464C138.234 38.488 136.047 39 133.359 39H118.671V33.752ZM130.959 24.6C131.578 24.6 132.037 24.44 132.335 24.12C132.655 23.7787 132.815 23.256 132.815 22.552V21.4C132.815 20.696 132.655 20.184 132.335 19.864C132.037 19.5227 131.578 19.352 130.959 19.352H129.231V24.6H130.959ZM131.183 33.752C131.802 33.752 132.261 33.592 132.559 33.272C132.879 32.9307 133.039 32.408 133.039 31.704V30.296C133.039 29.592 132.879 29.08 132.559 28.76C132.261 28.4187 131.802 28.248 131.183 28.248H129.231V33.752H131.183ZM164.476 33.752V39H155.708V36.504C154.172 38.4667 152.252 39.448 149.948 39.448C148.177 39.448 146.844 38.8933 145.948 37.784C145.073 36.6747 144.636 35.1493 144.636 33.208V26.456H143.228V21.208H151.996V31.704C151.996 32.408 152.145 32.9307 152.444 33.272C152.764 33.592 153.233 33.752 153.852 33.752C154.47 33.752 154.929 33.592 155.228 33.272C155.548 32.9307 155.708 32.408 155.708 31.704V26.456H153.98V21.208H163.068V33.752H164.476ZM171.661 39.448C169.485 39.448 167.843 38.6373 166.733 37.016C165.645 35.3947 165.101 33.0907 165.101 30.104C165.101 27.1173 165.645 24.8133 166.733 23.192C167.843 21.5707 169.485 20.76 171.661 20.76C172.749 20.76 173.709 21.0267 174.541 21.56C175.395 22.0933 176.088 22.7013 176.621 23.384V19.352H174.733V14.104H183.981V33.752H185.389V39H176.621V36.824C176.088 37.5067 175.395 38.1147 174.541 38.648C173.709 39.1813 172.749 39.448 171.661 39.448ZM174.765 33.752C175.384 33.752 175.843 33.592 176.141 33.272C176.461 32.9307 176.621 32.408 176.621 31.704V28.504C176.621 27.8 176.461 27.288 176.141 26.968C175.843 26.6267 175.384 26.456 174.765 26.456C174.147 26.456 173.677 26.6267 173.357 26.968C173.059 27.288 172.909 27.8 172.909 28.504V31.704C172.909 32.408 173.059 32.9307 173.357 33.272C173.677 33.592 174.147 33.752 174.765 33.752ZM192.724 39.448C190.548 39.448 188.905 38.6373 187.796 37.016C186.708 35.3947 186.164 33.0907 186.164 30.104C186.164 27.1173 186.708 24.8133 187.796 23.192C188.905 21.5707 190.548 20.76 192.724 20.76C193.812 20.76 194.772 21.0267 195.604 21.56C196.457 22.0933 197.15 22.7013 197.684 23.384V19.352H195.796V14.104H205.044V33.752H206.452V39H197.684V36.824C197.15 37.5067 196.457 38.1147 195.604 38.648C194.772 39.1813 193.812 39.448 192.724 39.448ZM195.828 33.752C196.446 33.752 196.905 33.592 197.204 33.272C197.524 32.9307 197.684 32.408 197.684 31.704V28.504C197.684 27.8 197.524 27.288 197.204 26.968C196.905 26.6267 196.446 26.456 195.828 26.456C195.209 26.456 194.74 26.6267 194.42 26.968C194.121 27.288 193.972 27.8 193.972 28.504V31.704C193.972 32.408 194.121 32.9307 194.42 33.272C194.74 33.592 195.209 33.752 195.828 33.752ZM209.018 19.448V14.104H215.546V19.448H209.018ZM207.482 39V33.752H208.89V26.456H207.482V21.208H216.25V33.752H217.658V39H207.482ZM228.081 39.448C225.051 39.448 222.683 38.6587 220.977 37.08C219.27 35.48 218.417 33.1547 218.417 30.104C218.417 27.0533 219.27 24.7387 220.977 23.16C222.683 21.56 225.051 20.76 228.081 20.76C231.089 20.76 233.254 21.5493 234.577 23.128C235.921 24.6853 236.593 26.6267 236.593 28.952V31.256H226.225V31.448C226.225 32.2373 226.459 32.824 226.929 33.208C227.398 33.5707 228.177 33.752 229.265 33.752C230.566 33.752 231.803 33.656 232.977 33.464C234.15 33.272 235.174 33.0267 236.049 32.728V37.848C235.302 38.2533 234.203 38.6267 232.753 38.968C231.323 39.288 229.766 39.448 228.081 39.448ZM229.937 27.736V27.352C229.937 26.6267 229.777 26.104 229.457 25.784C229.158 25.464 228.699 25.304 228.081 25.304C227.462 25.304 226.993 25.4747 226.673 25.816C226.374 26.136 226.225 26.648 226.225 27.352V27.736H229.937ZM245.321 39.448C242.633 39.448 240.041 39.0213 237.545 38.168V33.432H242.729V33.752C242.729 34.776 243.379 35.288 244.681 35.288C245.833 35.288 246.409 34.8933 246.409 34.104C246.409 33.6773 246.238 33.3573 245.897 33.144C245.577 32.9307 245.001 32.7493 244.169 32.6L242.569 32.312C239.219 31.7147 237.545 29.816 237.545 26.616C237.545 24.76 238.249 23.32 239.657 22.296C241.065 21.272 242.963 20.76 245.353 20.76C248.019 20.76 250.27 21.208 252.105 22.104V26.552H247.241V26.232C247.241 25.8053 247.091 25.4853 246.793 25.272C246.515 25.0373 246.099 24.92 245.545 24.92C244.478 24.92 243.945 25.2613 243.945 25.944C243.945 26.3067 244.094 26.584 244.393 26.776C244.691 26.968 245.235 27.1493 246.025 27.32L247.849 27.672C249.747 28.0347 251.102 28.7067 251.913 29.688C252.723 30.6693 253.129 31.928 253.129 33.464C253.129 35.4053 252.446 36.888 251.081 37.912C249.737 38.936 247.817 39.448 245.321 39.448Z" fill="#124C5F"/>
<path d="M27.3784 24.6847C26.5054 28.7117 29.5877 30.0575 31.6738 34.1764C34.806 40.1037 38.7701 39.6192 40.3228 36.3377C41.8053 33.1824 39.3295 30.0095 40.0941 26.423C40.8587 22.8366 44.6733 20.408 44.6439 17.0189C44.6145 13.6299 41.0518 12.164 35.5232 16.9344C31.7672 20.241 28.354 20.7192 27.3784 24.6847Z" fill="#00AEFF"/>
<path d="M20.2303 14.044C22.3972 16.5872 25.6478 17.1444 27.4432 15.403C29.2387 13.6616 28.9202 10.2218 26.679 7.79904C24.512 5.25591 21.2614 4.69862 19.466 6.44003C17.7449 8.06111 18.0634 11.5009 20.2303 14.044Z" fill="#124C5F"/>
<path d="M12.0726 24.476C15.4342 25.5733 19.0206 24.6915 20.1206 22.2366C21.1458 19.9015 19.3002 17.0716 15.8318 15.9137C12.4701 14.8164 8.88381 15.6983 7.78383 18.1531C6.75859 20.4883 8.71092 23.3787 12.0726 24.476Z" fill="#124C5F"/>
<path d="M12.678 37.1193C16.0397 38.2166 19.626 37.3348 20.726 34.8799C21.7513 32.5448 19.9056 29.7149 16.4373 28.557C13.0756 27.4597 9.48928 28.3416 8.3893 30.7964C7.36405 33.1316 9.31639 36.022 12.678 37.1193Z" fill="#124C5F"/>
</svg>
