<svg width="24" height="24" viewBox="0 0 24 24" fill="none" xmlns="http://www.w3.org/2000/svg">
<g clip-path="url(#clip0_72_142)">
<path d="M1.17099 14.828L5.04999 18.707C5.23859 18.8892 5.49119 18.99 5.75339 18.9877C6.01558 18.9854 6.2664 18.8802 6.45181 18.6948C6.63721 18.5094 6.74238 18.2586 6.74466 17.9964C6.74694 17.7342 6.64615 17.4816 6.46399 17.293L2.58499 13.414C2.46974 13.2965 2.36902 13.1656 2.28499 13.024C2.29999 13.024 2.31199 13.032 2.32699 13.032L18.011 13C18.2762 13 18.5306 12.8947 18.7181 12.7071C18.9056 12.5196 19.011 12.2652 19.011 12C19.011 11.7348 18.9056 11.4805 18.7181 11.2929C18.5306 11.1054 18.2762 11 18.011 11L2.33299 11.032C2.30499 11.032 2.28199 11.046 2.25499 11.048C2.34369 10.8789 2.45616 10.7233 2.58899 10.586L6.46799 6.70702C6.5635 6.61477 6.63968 6.50443 6.69209 6.38243C6.7445 6.26042 6.77208 6.1292 6.77324 5.99642C6.77439 5.86364 6.74909 5.73196 6.69881 5.60907C6.64853 5.48617 6.57427 5.37452 6.48038 5.28063C6.38649 5.18673 6.27484 5.11248 6.15194 5.0622C6.02905 5.01192 5.89736 4.98662 5.76459 4.98777C5.63181 4.98892 5.50059 5.01651 5.37858 5.06892C5.25658 5.12133 5.14623 5.19751 5.05399 5.29302L1.17499 9.17202C0.425102 9.92213 0.0038414 10.9394 0.0038414 12C0.0038414 13.0607 0.425102 14.0779 1.17499 14.828H1.17099Z" fill="black"/>
<path d="M17 2L19 2C19.7956 2 20.5587 2.31607 21.1213 2.87868C21.6839 3.44129 22 4.20435 22 5L22 19C22 19.7956 21.6839 20.5587 21.1213 21.1213C20.5587 21.6839 19.7956 22 19 22H17C16.7348 22 16.4804 22.1054 16.2929 22.2929C16.1054 22.4804 16 22.7348 16 23C16 23.2652 16.1054 23.5196 16.2929 23.7071C16.4804 23.8946 16.7348 24 17 24L19 24C20.3256 23.9984 21.5964 23.4711 22.5338 22.5338C23.4711 21.5964 23.9984 20.3256 24 19L24 5C23.9984 3.6744 23.4711 2.40356 22.5338 1.46622C21.5964 0.528881 20.3256 0.00158691 19 0L17 0C16.7348 0 16.4804 0.105356 16.2929 0.292892C16.1054 0.480429 16 0.734783 16 1C16 1.26522 16.1054 1.51957 16.2929 1.70711C16.4804 1.89464 16.7348 2 17 2Z" fill="black"/>
</g>
<defs>
<clipPath id="clip0_72_142">
<rect width="24" height="24" fill="white" transform="matrix(-1 0 0 -1 24 24)"/>
</clipPath>
</defs>
</svg>
