<svg width="65" height="72" viewBox="0 0 65 72" fill="none" xmlns="http://www.w3.org/2000/svg">
<path d="M13.0296 56.8487L15.4421 48.1797L14.5649 45.6234C12.7007 45.29 11.1654 44.2898 10.1785 42.9561L6.88871 54.6259L0.4188 66.2957C-0.458475 67.8517 0.089822 69.8523 1.62505 70.7414C3.16029 71.6305 5.13416 71.0748 6.01143 69.5188L12.8103 57.5156C12.92 57.2933 13.0296 57.071 13.0296 56.8487Z" fill="#124C5F"/>
<path d="M2.0638 32.9535C3.05074 33.5093 4.36665 33.0647 4.91495 31.9533L9.84963 21.7283L10.7269 21.0614L11.1655 18.2829C11.3849 16.8381 12.0428 15.5044 12.9201 14.3929L6.99848 18.2829C6.6695 18.5052 6.45018 18.8386 6.23086 19.172L1.07687 29.9527C0.528572 31.0641 0.967209 32.3978 2.0638 32.9535Z" fill="#124C5F"/>
<path d="M20.4863 12.059C23.7567 12.059 26.4079 9.37203 26.4079 6.05742C26.4079 2.74281 23.7567 0.0557861 20.4863 0.0557861C17.2159 0.0557861 14.5647 2.74281 14.5647 6.05742C14.5647 9.37203 17.2159 12.059 20.4863 12.059Z" fill="#124C5F"/>
<path d="M59.0867 56.8487C59.0867 56.8487 59.1963 56.9599 59.1963 57.071C60.0736 56.5153 60.4026 55.2928 60.4026 55.2928C63.6924 56.293 64.3503 53.1811 64.3503 53.1811C64.789 52.2919 62.5958 51.4028 62.5958 51.4028C62.4861 49.18 59.964 48.5131 59.964 48.5131C58.7577 47.4017 59.0867 48.5131 59.0867 48.5131C57.8804 48.402 57.1128 48.8466 57.1128 48.8466C55.139 46.9572 53.9327 49.8468 53.9327 49.8468C53.6037 49.8468 53.3844 49.958 53.0554 49.958C55.0293 52.6254 57.1128 54.9593 59.0867 56.8487Z" fill="#124C5F"/>
<path d="M61.8281 63.6285C61.2798 63.0728 57.3321 60.6277 57.3321 60.6277C58.2093 60.1831 58.319 58.2937 58.319 57.6269C56.2355 55.6263 54.0423 53.0701 51.8491 50.1804C50.7525 50.4027 43.515 53.5146 36.4968 50.2915C33.8649 49.069 31.5621 50.8473 31.5621 50.8473C29.5882 53.1812 30.4655 56.96 30.4655 56.96L33.207 53.9592C34.6325 52.8478 35.1808 53.0701 35.5098 53.6258C35.7291 54.0703 35.6195 54.6261 35.2905 55.0706C32.6587 57.8492 33.536 60.7388 33.536 60.7388L29.8075 64.0731C28.382 65.629 30.0268 66.8516 30.0268 66.8516C30.3558 65.629 32.9877 63.7396 32.9877 63.7396C32.878 65.1845 33.536 65.5179 33.536 65.5179C35.4002 64.9622 34.9615 63.0728 34.9615 63.0728C37.9223 62.9617 38.2513 61.628 38.2513 61.628C41.2121 62.1837 42.6377 60.1831 42.6377 60.1831C43.4053 61.628 50.0945 63.1839 50.0945 63.1839C50.5332 63.4062 53.0553 68.5187 53.0553 68.5187C53.6036 68.6299 54.1519 69.4079 54.1519 69.4079C55.3582 70.1858 57.8803 69.2967 57.8803 69.2967C57.661 68.2964 56.3451 68.2964 56.3451 68.2964C53.3843 68.2964 53.823 63.2951 53.823 63.2951C53.9326 62.6282 56.2355 63.8508 56.2355 63.8508L61.2798 65.7402C63.802 67.0739 64.8986 65.5179 64.8986 65.5179C65.6662 64.2954 61.8281 63.6285 61.8281 63.6285Z" fill="#124C5F"/>
<path d="M37.0449 24.062C39.5671 29.7302 44.9404 40.9555 51.8489 50.0691C52.1779 49.9579 52.6166 49.9579 53.0552 49.8468C52.9455 49.7356 52.8359 49.6245 52.7262 49.4022C45.8177 40.3998 40.4444 29.1745 38.0319 23.6174C37.5932 23.9509 37.1546 24.062 37.0449 24.062Z" fill="#124C5F"/>
<path d="M36.9354 22.9508C38.032 22.5063 38.6899 21.2837 38.2513 20.1723C37.8126 19.0609 36.6064 18.3941 35.5098 18.8386L29.5882 20.9503C22.6796 14.393 22.3507 13.2816 19.6092 12.837C16.1001 12.2813 12.8103 14.8375 12.262 18.3941L9.63016 37.0658C9.08187 40.6223 11.604 43.9566 15.1131 44.5123C15.2228 44.5123 15.3325 44.5123 15.4421 44.5123L18.2933 53.1813L12.4813 61.8503C11.4944 63.2952 11.8234 65.4068 13.3586 66.4071C14.7842 67.4074 16.8677 67.074 17.8546 65.518L24.6535 55.5153C25.2018 54.6261 25.4211 53.6259 25.0921 52.6256L21.4734 41.6226C22.0217 40.8446 22.4603 39.8443 22.57 38.8441L24.9825 22.284L27.724 24.9514C28.2723 25.5071 29.1495 25.7294 29.9172 25.396L36.9354 22.9508Z" fill="#124C5F"/>
</svg>
