<svg width="25" height="26" viewBox="0 0 25 26" fill="none" xmlns="http://www.w3.org/2000/svg">
<path d="M17.117 10.9301C18.965 10.9301 20.4457 8.57094 20.4457 5.64836C20.4457 2.72577 18.965 0.366577 17.117 0.366577C15.2689 0.366577 13.7771 2.72577 13.7771 5.64836C13.7771 8.57094 15.2689 10.9301 17.117 10.9301ZM8.21071 10.9301C10.0588 10.9301 11.5394 8.57094 11.5394 5.64836C11.5394 2.72577 10.0588 0.366577 8.21071 0.366577C6.36266 0.366577 4.87086 2.72577 4.87086 5.64836C4.87086 8.57094 6.36266 10.9301 8.21071 10.9301ZM8.21071 14.4513C5.61676 14.4513 0.417725 16.5112 0.417725 20.6134V25.0149H16.0037V20.6134C16.0037 16.5112 10.8047 14.4513 8.21071 14.4513ZM17.117 14.4513C16.7941 14.4513 16.4267 14.4865 16.0371 14.5394C17.3285 16.0183 18.2303 18.0077 18.2303 20.6134V25.0149H24.91V20.6134C24.91 16.5112 19.7109 14.4513 17.117 14.4513Z" fill="#8E8E93"/>
</svg>
